<svg xmlns="http://www.w3.org/2000/svg" viewBox="0 0 500 113.3"><style type="text/css">  
	.st0{fill:#FFFFFF;}
	.st1{fill-rule:evenodd;clip-rule:evenodd;fill:#FFFFFF;}
	.st2{fill-rule:evenodd;clip-rule:evenodd;fill:#FFFFFF;}
	.st3{fill:#6761A7;}
	.st4{fill:#996198;}
	.st5{fill:#78BBB9;}
	.st6{fill:#576DB1;}
	.st7{fill:#BF4E5B;}
	.st8{fill:#C88E51;}
	.st9{fill:#FFFFFF;}
	.st10{fill:#010302;}

</style><path class="st9" d="m130.3 94.6c5.5 0 9-3.5 9-9.9v-12.4h-4.6v12.4c0 3.4-1.5 5.2-4.2 5.2-2.8 0-4.2-1.9-4.2-5.7v-11.9h-5.1v12.4c0 6.5 3.5 9.9 9.1 9.9z"/><path class="st9" d="m24.2 92.3c3.5-2 5.3-5.2 5.3-9.2 0-6.5-4.6-10.8-12.9-10.8h-5.7v21.6h5.7c2.9 0 5.3-0.3 7.6-1.6zm-8.2-15.4h1.1c4.6 0 7.2 2.4 7.2 6.2s-2.6 6.2-7.2 6.2h-1.1v-12.4z"/><path class="st9" d="m165.8 92.3c3.5-2 5.3-5.2 5.3-9.2 0-6.5-4.6-10.8-12.9-10.8h-5.7v21.6h5.7c3 0 5.3-0.3 7.6-1.6zm-8.2-15.4h1.1c4.6 0 7.2 2.4 7.2 6.2s-2.6 6.2-7.2 6.2h-1.1v-12.4z"/><path class="st9" d="m203.5 75.7c1.2 0 3 0.6 5.3 2v-5.1c-2-0.7-3.8-1.1-5.4-1.1-4.3 0-7 2.6-7 5.9 0 2.6 1.3 4.5 4.2 6.2l1.5 0.8c2.2 1.3 3.6 1.9 3.6 3.4 0 1.2-1.1 2.1-3 2.1-2.1 0-3.9-0.9-6.1-2.2l0.4 5.8c2.2 0.7 4 1 5.7 1 4.9 0 7.9-3 7.9-7 0-3.4-2.2-5-5.4-6.8l-2.5-1.4c-1-0.5-1.5-1.2-1.5-1.9 0-1 0.8-1.7 2.3-1.7z"/><path class="st9" d="m118.6 87.6c0-2.6-1.6-4.6-4.2-5.2 2.3-0.9 3.5-2.4 3.5-4.6 0-3.6-2.6-5.4-7.6-5.4h-6.7v21.6h5.8c6.1-0.1 9.2-2.3 9.2-6.4zm-10.3-11.6h1.6c2.3 0 3.3 0.7 3.3 2.3s-1.2 2.5-3.2 2.5h-1.7v-4.8zm0 8.5h2.1c2.2 0 3.3 1 3.3 2.7 0 1.8-1.2 2.8-3.3 2.8h-2.1v-5.5z"/><rect class="st9" x="32.3" y="72.3" width="5.1" height="21.6"/><rect class="st9" x="143.3" y="72.3" width="5.1" height="21.6"/><rect class="st9" x="94.4" y="72.3" width="5.1" height="21.6"/><path class="st9" d="m183.7 94.6c3.4 0 6.6-1.6 8.7-4.4 1.5-2 2.3-4.4 2.3-7.1 0-3.2-1.1-6.1-3.2-8.2s-4.9-3.3-7.8-3.3-5.7 1.2-7.7 3.3c-2.1 2.2-3.3 5-3.3 8.2s1.1 6 3.3 8.2c2 2.1 4.8 3.3 7.7 3.3zm0-18.1c3.2 0 5.7 2.8 5.7 6.6s-2.5 6.6-5.7 6.6-5.7-2.8-5.7-6.6 2.5-6.6 5.7-6.6z"/><polygon class="st9" points="146.7 64.8 143.7 69.9 145.6 69.9 150 64.8"/><path class="st9" d="m80.6 85.4h0.7l5.8 8.5h5.9l-6.6-9.3c2.6-1.2 4-3.3 4-6 0-1.9-0.9-3.7-2.5-4.8-1.9-1.3-4-1.5-6.7-1.5h-5.5v21.6h5v-8.5zm0-9.1h0.9c2.8 0 4.2 0.8 4.2 2.9 0 1.9-1.4 3-4 3h-1.1v-5.9z"/><polygon class="st9" points="67.1 93.9 67.1 76.8 73.9 76.8 73.9 72.3 55.1 72.3 55.1 76.8 61.9 76.8 61.9 93.9"/><path class="st9" d="m47 90c-2.1 0-3.9-0.9-6.1-2.2l0.4 5.8c2.2 0.7 4 1 5.7 1 4.9 0 7.9-3 7.9-7 0-3.4-2.2-5-5.4-6.8l-2.5-1.4c-1-0.5-1.5-1.2-1.5-1.9 0-1.1 0.9-1.7 2.3-1.7 1.2 0 3 0.6 5.3 2v-5.1c-2-0.7-3.8-1.1-5.5-1.1-4.3 0-7 2.6-7 5.9 0 2.6 1.3 4.5 4.2 6.2l1.5 0.8c2.2 1.3 3.6 1.9 3.6 3.4 0 1.2-1.1 2.1-2.9 2.1z"/><polygon class="st9" points="146.6 57 138.2 57 138.2 52.7 145.3 52.7 145.3 48.3 138.2 48.3 138.2 44.4 146.5 44.4 146.5 39.9 133.2 39.9 133.2 61.5 146.6 61.5"/><path class="st9" d="m196 61.5-10.7-22.2h-0.3l-11 22.2h5.2l1.4-3.1h8.7l1.4 3.1h5.3zm-14-6.8 2.9-6.8 2.8 6.8h-5.7z"/><path class="st9" d="m42.5 59.9c3.5-2 5.3-5.2 5.3-9.2 0-6.5-4.6-10.8-12.9-10.8h-4.7v21.6h4.8c2.9 0 5.3-0.3 7.5-1.6zm-9.7-17.6h2.6c6.3 0 9.8 3.3 9.8 8.4s-3.5 8.4-9.8 8.4h-2.6v-16.8z"/><polygon class="st9" points="169.1 39.2 168.7 39.2 161.1 53.3 152.9 39.2 152.6 39.2 148.1 61.5 152.7 61.5 154.6 51.5 160.8 62.3 161.1 62.3 166.9 51.7 168.7 61.5 173.6 61.5"/><polygon class="st9" points="124.7 61.5 124.7 44.5 131.5 44.5 131.5 39.9 112.7 39.9 112.7 44.5 119.6 44.5 119.6 61.5"/><rect class="st9" x="90" y="39.9" width="5.1" height="21.6"/><polygon class="st9" points="63 59.2 53.6 59.2 53.6 51.3 61.6 51.3 61.6 49.1 53.6 49.1 53.6 42.1 62.9 42.1 62.9 39.9 51.1 39.9 51.1 61.5 63 61.5"/><path class="st9" d="m72.8 45.2c0 2.6 1.3 4.5 4.2 6.2l1.5 0.8c2.2 1.3 3.6 1.9 3.6 3.4 0 1.2-1.1 2.1-3 2.1-2.1 0-3.9-0.9-6.1-2.2l0.4 5.8c2.2 0.7 4.1 1 5.7 1 4.9 0 7.9-3 7.9-7 0-3.4-2.2-5-5.4-6.8l-2.5-1.5c-1-0.5-1.5-1.2-1.5-1.9 0-1.1 0.9-1.7 2.3-1.7 1.2 0 3 0.6 5.3 2v-5.1c-2-0.7-3.8-1.1-5.5-1.1-4.1 0-6.9 2.6-6.9 6z"/><path class="st9" d="m98.3 45.2c0 2.6 1.3 4.5 4.2 6.2l1.5 0.8c2.2 1.3 3.6 1.9 3.6 3.4 0 1.2-1.1 2.1-3 2.1-2.1 0-3.9-0.9-6.1-2.2l0.4 5.8c2.2 0.7 4 1 5.7 1 4.9 0 7.9-3 7.9-7 0-3.4-2.2-5-5.4-6.8l-2.5-1.4c-1-0.5-1.5-1.2-1.5-1.9 0-1.1 0.9-1.7 2.3-1.7 1.2 0 3 0.6 5.3 2v-5.1c-2-0.7-3.8-1.1-5.5-1.1-4.1-0.1-6.9 2.5-6.9 5.9z"/><path class="st9" d="m200.5 51.3 1.5 0.8c2.2 1.3 3.6 1.9 3.6 3.4 0 1.2-1.1 2.1-3 2.1-2.1 0-3.9-0.9-6.1-2.2l0.4 5.8c2.2 0.7 4 1 5.7 1 4.9 0 7.9-3 7.9-7 0-3.4-2.2-5-5.4-6.8l-2.5-1.4c-1-0.5-1.5-1.2-1.5-1.9 0-1.1 0.9-1.7 2.3-1.7 1.2 0 3 0.6 5.3 2v-5.1c-2-0.7-3.8-1.1-5.5-1.1-4.3 0-7 2.6-7 5.9 0.1 2.6 1.5 4.6 4.3 6.2z"/><path class="st9" d="m200 29.8c3.3 0 6.4-1.6 8.4-4.4 1.4-2 2.2-4.4 2.2-7.1 0-3.2-1.1-6-3.1-8.2-2-2.1-4.7-3.3-7.5-3.3s-5.5 1.2-7.5 3.3c-2 2.2-3.1 5-3.1 8.2s1.1 6 3.1 8.2c2 2.1 4.7 3.3 7.5 3.3zm0-20.6c4.4 0 7.9 3.8 7.9 9.1s-3.5 9.1-7.9 9.1-8-3.9-8-9.1 3.5-9.1 8-9.1z"/><path class="st9" d="m62.9 23c0-2.9-1.5-4.8-4.4-5.5 2.5-0.8 3.9-2.4 3.9-4.8 0-3.1-2.5-5.1-7.4-5.1h-5.5v21.6h4.4c6-0.1 9-2.4 9-6.2zm-11-13.4h2.6c3.5 0 5.3 1 5.3 3.3 0 2.2-1.9 3.7-5.1 3.7h-2.8v-7zm0 9h2.5c3.8 0 5.9 1.6 5.9 4.1 0 2.7-2.1 4.3-5.8 4.3h-2.5v-8.4z"/><path class="st9" d="m75.6 29.8c3.3 0 6.4-1.6 8.4-4.4 1.4-2 2.2-4.4 2.2-7.1 0-3.2-1.1-6-3.1-8.2-2-2.1-4.7-3.3-7.5-3.3s-5.5 1.2-7.5 3.3c-2 2.2-3.1 5-3.1 8.2s1.1 6 3.1 8.2c2 2.1 4.7 3.3 7.5 3.3zm0-20.6c4.4 0 7.9 3.8 7.9 9.1s-3.5 9.1-7.9 9.1-8-3.9-8-9.1 3.5-9.1 8-9.1z"/><rect class="st9" x="183.6" y="7.6" width="2.6" height="21.6"/><path class="st9" d="m167.9 20.3h2.7l7.5 8.9h3.2l-7.8-9.2c3.5-0.6 5.6-3 5.6-6.1 0-4-3-6.3-9.2-6.3h-4.6v21.6h2.5v-8.9zm0-10.6h1.8c4.6 0 6.9 1.2 6.9 4.2 0 2.8-2.2 4.4-6.5 4.4h-2.2v-8.6z"/><polygon class="st9" points="26.8 26.8 16.6 26.8 16.6 7.6 14.1 7.6 14.1 29.1 26.8 29.1"/><polygon class="st9" points="155.2 0 152.5 0 149.4 5.2 151 5.2"/><polygon class="st9" points="130.8 29.1 133.4 29.1 133.4 9.9 141 9.9 141 7.6 123.2 7.6 123.2 9.9 130.8 9.9"/><path class="st9" d="m111 23.6h10.2l2.4 5.5h2.8l-10.1-22.1h-0.3l-10 22.1h2.6l2.4-5.5zm5.2-11.5 4.1 9.5h-8.3l4.2-9.5z"/><path class="st9" d="m32.2 23.6h10.2l2.4 5.5h2.8l-10.1-22.1h-0.3l-10.1 22.1h2.6l2.5-5.5zm5.1-11.5 4.1 9.5h-8.3l4.2-9.5z"/><path class="st9" d="m144 26.5c2 2.1 4.7 3.3 7.5 3.3 3.3 0 6.4-1.6 8.4-4.4 1.4-2 2.2-4.4 2.2-7.1 0-3.2-1.1-6-3.1-8.2-2-2.1-4.7-3.3-7.5-3.3s-5.5 1.2-7.5 3.3c-2 2.2-3.1 5-3.1 8.2 0 3.3 1.1 6 3.1 8.2zm7.5-17.3c4.4 0 7.9 3.8 7.9 9.1s-3.5 9.1-7.9 9.1-8-3.9-8-9.1 3.5-9.1 8-9.1z"/><path class="st9" d="m92 20.3h2.7l7.5 8.9h3.2l-7.8-9.2c3.5-0.6 5.6-3 5.6-6.1 0-4-3-6.3-9.2-6.3h-4.6v21.6h2.6v-8.9zm0-10.6h1.8c4.6 0 6.9 1.2 6.9 4.2 0 2.8-2.2 4.4-6.5 4.4h-2.2v-8.6z"/><path class="st1" d="m435.2 25h-159.6c-11.3 0-20.5 9.2-20.5 20.5s9.2 20.5 20.5 20.5h123.1c4.4 0 8 3.6 8 8s-3.6 8-8 8h-159.6v-50.7c0-3.5-2.8-6.3-6.3-6.3s-6.3 2.8-6.3 6.3v57c0 3.5 2.8 6.3 6.3 6.3h202.4c19.2 0 34.8-15.6 34.8-34.8s-15.6-34.8-34.8-34.8zm22.3 34.8c0 12.3-10 22.3-22.3 22.3h-17.6c1-2.5 1.6-5.2 1.6-8 0-11.3-9.2-20.5-20.5-20.5h-123.1c-4.4 0-8-3.6-8-8s3.6-8 8-8h159.6c12.3 0 22.3 9.9 22.3 22.2z"/><rect class="st3" x="307.7" width="40.6" height="12.5"/><rect class="st4" x="348.3" width="40.6" height="12.5"/><rect class="st5" x="226.5" width="40.6" height="12.5"/><rect class="st6" x="267.1" width="40.6" height="12.5"/><rect class="st7" x="388.8" width="40.6" height="12.5"/><rect class="st8" x="429.4" width="40.6" height="12.5"/></svg>